<?xml version="1.0" encoding="UTF-8" standalone="no"?>
<svg
   version="1.1"
   viewBox="-5 -10 110 110"
   id="svg2"
   sodipodi:docname="Roundabout.svg"
   width="110"
   height="110"
   inkscape:version="1.4.2 (f4327f4, 2025-05-13)"
   xmlns:inkscape="http://www.inkscape.org/namespaces/inkscape"
   xmlns:sodipodi="http://sodipodi.sourceforge.net/DTD/sodipodi-0.dtd"
   xmlns="http://www.w3.org/2000/svg"
   xmlns:svg="http://www.w3.org/2000/svg">
  <defs
     id="defs2" />
  <sodipodi:namedview
     id="namedview2"
     pagecolor="#ffffff"
     bordercolor="#000000"
     borderopacity="0.25"
     inkscape:showpageshadow="2"
     inkscape:pageopacity="0.0"
     inkscape:pagecheckerboard="0"
     inkscape:deskcolor="#d1d1d1"
     inkscape:zoom="6.7222222"
     inkscape:cx="84.123967"
     inkscape:cy="76.983471"
     inkscape:window-width="3840"
     inkscape:window-height="2054"
     inkscape:window-x="3829"
     inkscape:window-y="-11"
     inkscape:window-maximized="1"
     inkscape:current-layer="svg2" />
  <path
     d="m 88.008,60.371 -0.22266,-0.78125 c 3.9023,-9.8164 3.9023,-20.805 0,-30.617 0.22266,-0.78125 0.61328,-1.4492 1.1719,-2.0078 l 10.875,-10.875 -9.0352,-9.0352 -0.94922,0.94922 -3.1797,-3.1797 0.94922,-0.94922 -8.8125,-8.8125 -10.484,10.484 c -0.55859,0.55859 -1.2266,0.94922 -2.0078,1.1719 -10.207,-4.5742 -21.918,-4.7422 -32.293,-0.61328 -0.72656,-0.22266 -1.4492,-0.61328 -2.0078,-1.1719 l -10.875,-10.875 -9.0352,9.0352 0.94922,0.94922 -3.1797,3.1797 -0.94922,-0.94922 -8.8125,8.8125 10.484,10.484 c 0.55859,0.55859 0.94922,1.2266 1.1719,2.0078 -6.75,15.113 -3.9023,33.52 8.5312,45.957 12.383,12.383 30.676,15.227 45.789,8.5898 0.61328,0.22266 1.1719,0.61328 1.6172,1.0586 l 10.875,10.875 9.0352,-9.0352 -0.94922,-0.94922 3.1797,-3.1797 0.94922,0.94922 8.8125,-8.8125 -10.484,-10.484 c -0.55859,-0.55859 -1.0039,-1.2812 -1.2266,-2.1211 z M 81.6486,9.84 l 3.1797,3.1797 -4.1289,4.1289 -3.1797,-3.1797 z m -26.715,4.4062 -0.78125,4.4062 c -3.2344,-0.55859 -6.582,-0.55859 -9.8164,0.11328 l -0.89063,-4.3516 c 3.793,-0.78125 7.6406,-0.83594 11.488,-0.11328 z m -22.086,4.4609 2.4531,3.7383 c -2.7344,1.7852 -5.1875,4.1289 -7.082,6.8047 l -3.625,-2.5664 c 2.2305,-3.125 5.0742,-5.8555 8.2539,-7.9766 z m -14.668,-9.7031 4.1289,4.1289 -3.1797,3.1797 -4.1289,-4.1289 z m 1.1172,39.598 c -0.55859,-3.8477 -0.39062,-7.6953 0.5,-11.488 l 4.3516,1.0586 c -0.78125,3.2344 -0.94922,6.5234 -0.44531,9.8164 z m 11.211,19.574 c -0.89062,-0.72656 -1.7852,-1.5039 -2.6211,-2.3438 -1.8945,-1.8945 -3.5703,-4.0703 -4.9062,-6.3594 l 3.8477,-2.2305 c 1.1172,2.0078 2.5664,3.793 4.1836,5.4648 0.72656,0.72656 1.4492,1.3945 2.2305,2.0078 l -2.7891,3.5117 z m 10.152,5.2969 1.2812,-4.293 c 3.1797,0.94922 6.4688,1.2812 9.7617,1.0039 l 0.39062,4.4609 c -3.8477,0.33594 -7.6953,-0.05469 -11.434,-1.1719 z m -2.0625,-18.406 c -5.9688,-5.9688 -5.9688,-15.727 0,-21.695 5.9688,-5.968 15.727,-5.9688 21.695,0 5.968,5.9688 5.9688,15.727 0,21.695 -5.9688,5.968 -15.727,5.9688 -21.695,0 z m 32.461,10.707 c -2.3438,2.3438 -5.0195,4.2383 -7.918,5.7461 l -2.0078,-4.0156 c 2.957,-1.4492 5.5781,-3.5117 7.8086,-5.9688 l 3.3477,2.957 c -0.39062,0.44531 -0.78125,0.83594 -1.1719,1.2812 z m -3.1797,-39.988 c -1.3945,-1.3945 -2.957,-2.6758 -4.6836,-3.6797 l 2.3438,-3.793 c 1.9531,1.2266 3.793,2.6758 5.4648,4.3516 2.7344,2.7344 4.9062,5.9688 6.4688,9.4805 l -4.0703,1.7852 c -1.2812,-3.0117 -3.1797,-5.7461 -5.5195,-8.0859 z m 7.6406,17.68 4.4609,-0.11328 c 0.11328,3.9023 -0.5,7.6953 -1.8398,11.32 l -4.1836,-1.5039 c 1.1172,-3.125 1.6719,-6.3594 1.5625,-9.7031 z m 6.1367,35.359 -4.1289,-4.1289 3.1797,-3.1797 4.1289,4.1289 z"
     id="path1"
     style="fill:#ffffff" />
</svg>
